# xmcd CD database file generated by OrangeCD 5.2
#
# Track frame offsets:
#	150
#	16451
#	27346
#	41791
#	59070
#	70959
#	82094
#	90949
#	104492
#	113710
#	126173
#	141334
#	149145
#	167845
#	177725
#	187401
#	196268
#	212131
#	222510
#	230977
#	242290
#	257544
#	270940
#	282939
#
# Disc length: 3908 seconds
#
# Revision: 0
# Processed by: cddbd v1.5.1PL2 Copyright (c) Steve Scherf et al.
# Submitted via: OrangeCD 5.2
#
DISCID=810f4218
DTITLE=Johnny Cash - Live At Town Hall Party
DYEAR=2005
DGENRE=Country
TTITLE0=Get Rhythm
TTITLE1=You're The Nearest Thing To Heaven
TTITLE2=I Was There When It Happened
TTITLE3=Don't Take Your Guns To Town
TTITLE4=Frankie's Man Johnny
TTITLE5=I Walk The Line
TTITLE6=The Ways Of A Woman In Love
TTITLE7=Give My Love To Rose
TTITLE8=It Was Jesus
TTITLE9=All Over Again
TTITLE10=Suppertime
TTITLE11=Guess Things Happen That Way
TTITLE12=Five Feet High And Rising
TTITLE13=I Got Stripes
TTITLE14=The Ways Of A Woman In Love
TTITLE15=Big River
TTITLE16=Frankie's Man Johnny
TTITLE17=I Walk The Line
TTITLE18=Pickin' Time
TTITLE19=Folsom Prison Blues
TTITLE20=Don't Take Your Guns To Town
TTITLE21=I Was There When It Happened
TTITLE22=Heartbreak Hotel (Elvis Impersonation)
TTITLE23=I Got Stripes
EXTD=Track 1-11 Recorded Live At Town Hall Party November 15, 1958\n\nTrack 12-
EXTD=24 Recorded Live At Town Hall Party August 8, 1959
EXTT0=
EXTT1=
EXTT2=
EXTT3=
EXTT4=
EXTT5=
EXTT6=
EXTT7=
EXTT8=
EXTT9=
EXTT10=
EXTT11=
EXTT12=
EXTT13=
EXTT14=
EXTT15=
EXTT16=
EXTT17=
EXTT18=
EXTT19=
EXTT20=
EXTT21=
EXTT22=
EXTT23=
PLAYORDER=
